<svg xmlns="http://www.w3.org/2000/svg" width="48" height="48" viewBox="0 0 48 48" shape-rendering="crispEdges">
<rect x="12" y="0" width="6" height="6" fill="#83c54f" />
<rect x="18" y="0" width="6" height="6" fill="#83c54f" />
<rect x="24" y="0" width="6" height="6" fill="#83c54f" />
<rect x="30" y="0" width="6" height="6" fill="#83c54f" />
<rect x="6" y="6" width="6" height="6" fill="#83c54f" />
<rect x="12" y="6" width="6" height="6" fill="#b2e1e7" />
<rect x="18" y="6" width="6" height="6" fill="#b2e1e7" />
<rect x="24" y="6" width="6" height="6" fill="#b2e1e7" />
<rect x="30" y="6" width="6" height="6" fill="#b2e1e7" />
<rect x="36" y="6" width="6" height="6" fill="#83c54f" />
<rect x="0" y="12" width="6" height="6" fill="#83c54f" />
<rect x="6" y="12" width="6" height="6" fill="#b2e1e7" />
<rect x="12" y="12" width="6" height="6" fill="#bf69e9" />
<rect x="18" y="12" width="6" height="6" fill="#bf69e9" />
<rect x="24" y="12" width="6" height="6" fill="#bf69e9" />
<rect x="30" y="12" width="6" height="6" fill="#bf69e9" />
<rect x="36" y="12" width="6" height="6" fill="#b2e1e7" />
<rect x="42" y="12" width="6" height="6" fill="#83c54f" />
<rect x="0" y="18" width="6" height="6" fill="#83c54f" />
<rect x="6" y="18" width="6" height="6" fill="#b2e1e7" />
<rect x="12" y="18" width="6" height="6" fill="#bf69e9" />
<rect x="18" y="18" width="6" height="6" fill="#692e2e" />
<rect x="24" y="18" width="6" height="6" fill="#692e2e" />
<rect x="30" y="18" width="6" height="6" fill="#bf69e9" />
<rect x="36" y="18" width="6" height="6" fill="#b2e1e7" />
<rect x="42" y="18" width="6" height="6" fill="#83c54f" />
<rect x="0" y="24" width="6" height="6" fill="#83c54f" />
<rect x="6" y="24" width="6" height="6" fill="#b2e1e7" />
<rect x="12" y="24" width="6" height="6" fill="#bf69e9" />
<rect x="18" y="24" width="6" height="6" fill="#692e2e" />
<rect x="24" y="24" width="6" height="6" fill="#692e2e" />
<rect x="30" y="24" width="6" height="6" fill="#bf69e9" />
<rect x="36" y="24" width="6" height="6" fill="#b2e1e7" />
<rect x="42" y="24" width="6" height="6" fill="#83c54f" />
<rect x="0" y="30" width="6" height="6" fill="#83c54f" />
<rect x="6" y="30" width="6" height="6" fill="#b2e1e7" />
<rect x="12" y="30" width="6" height="6" fill="#bf69e9" />
<rect x="18" y="30" width="6" height="6" fill="#bf69e9" />
<rect x="24" y="30" width="6" height="6" fill="#bf69e9" />
<rect x="30" y="30" width="6" height="6" fill="#bf69e9" />
<rect x="36" y="30" width="6" height="6" fill="#b2e1e7" />
<rect x="42" y="30" width="6" height="6" fill="#83c54f" />
<rect x="6" y="36" width="6" height="6" fill="#83c54f" />
<rect x="12" y="36" width="6" height="6" fill="#b2e1e7" />
<rect x="18" y="36" width="6" height="6" fill="#b2e1e7" />
<rect x="24" y="36" width="6" height="6" fill="#b2e1e7" />
<rect x="30" y="36" width="6" height="6" fill="#b2e1e7" />
<rect x="36" y="36" width="6" height="6" fill="#83c54f" />
<rect x="12" y="42" width="6" height="6" fill="#83c54f" />
<rect x="18" y="42" width="6" height="6" fill="#83c54f" />
<rect x="24" y="42" width="6" height="6" fill="#83c54f" />
<rect x="30" y="42" width="6" height="6" fill="#83c54f" />
</svg>